<svg id="组_1" data-name="组 1" xmlns="http://www.w3.org/2000/svg" xmlns:xlink="http://www.w3.org/1999/xlink" width="112" height="73" viewBox="0 0 112 73">
  <metadata><?xpacket begin="﻿" id="W5M0MpCehiHzreSzNTczkc9d"?>
<x:xmpmeta xmlns:x="adobe:ns:meta/" x:xmptk="Adobe XMP Core 5.6-c142 79.160924, 2017/07/13-01:06:39        ">
   <rdf:RDF xmlns:rdf="http://www.w3.org/1999/02/22-rdf-syntax-ns#">
      <rdf:Description rdf:about=""/>
   </rdf:RDF>
</x:xmpmeta>
                                                                                                    
                                                                                                    
                                                                                                    
                                                                                                    
                                                                                                    
                                                                                                    
                                                                                                    
                                                                                                    
                                                                                                    
                                                                                                    
                                                                                                    
                                                                                                    
                                                                                                    
                                                                                                    
                                                                                                    
                                                                                                    
                                                                                                    
                                                                                                    
                                                                                                    
                                                                                                    
                           
<?xpacket end="w"?></metadata>
<defs>
    <style>
      .cls-1, .cls-2 {
        fill-rule: evenodd;
      }

      .cls-1 {
        fill: url(#linear-gradient);
      }

      .cls-2 {
        fill: url(#linear-gradient-2);
      }
    </style>
    <linearGradient id="linear-gradient" x1="52" y1="72.875" x2="52" y2="0.875" gradientUnits="userSpaceOnUse">
      <stop offset="0" stop-color="#0f79ff"/>
      <stop offset="1" stop-color="#27c6ff"/>
    </linearGradient>
    <linearGradient id="linear-gradient-2" x1="84" y1="57" x2="84" y2="9" gradientUnits="userSpaceOnUse">
      <stop offset="0" stop-color="#e87800"/>
      <stop offset="1" stop-color="#fda214"/>
    </linearGradient>
  </defs>
  <path id="_1" data-name="1" class="cls-1" d="M26.555,72.875C11.892,72.875,0,60.317,0,44.833S11.892,16.792,26.555,16.792a25.289,25.289,0,0,1,5.427.587C36.37,7.628,45.781.885,56.682,0.885c10.813,0,20.161,6.634,24.593,16.258h-9.83v0A18.586,18.586,0,0,0,56.682,9.7,18.942,18.942,0,0,0,39.523,21.162l-2.815,6.258-6.424-1.41a17.375,17.375,0,0,0-3.728-.4c-10.056,0-18.208,8.608-18.208,19.227S16.5,64.06,26.555,64.06H83.548a17.32,17.32,0,0,0,6.72-1.352h13.74a25.979,25.979,0,0,1-20.46,10.167H26.555Z"/>
  <path id="_2" data-name="2" class="cls-2" d="M78.617,24.4H89.388a3.028,3.028,0,0,1,2.85,3.163V53.835A3.028,3.028,0,0,1,89.388,57H78.617a3.027,3.027,0,0,1-2.85-3.163V27.567a3.027,3.027,0,0,1,2.85-3.163h0ZM58.855,40.77H69.626a3.027,3.027,0,0,1,2.849,3.163v9.9A3.028,3.028,0,0,1,69.626,57H58.855a3.027,3.027,0,0,1-2.849-3.163v-9.9a3.027,3.027,0,0,1,2.849-3.163h0ZM98.379,9H109.15A3.028,3.028,0,0,1,112,12.163V53.835A3.028,3.028,0,0,1,109.15,57H98.379a3.028,3.028,0,0,1-2.85-3.163V12.163A3.027,3.027,0,0,1,98.379,9Z"/>
</svg>
